<?xml version="1.0" encoding="UTF-8" standalone="no"?>
<!-- Created with Inkscape (http://www.inkscape.org/) -->

<svg
   xmlns:dc="http://purl.org/dc/elements/1.1/"
   xmlns:cc="http://creativecommons.org/ns#"
   xmlns:rdf="http://www.w3.org/1999/02/22-rdf-syntax-ns#"
   xmlns:svg="http://www.w3.org/2000/svg"
   xmlns="http://www.w3.org/2000/svg"
   xmlns:sodipodi="http://sodipodi.sourceforge.net/DTD/sodipodi-0.dtd"
   xmlns:inkscape="http://www.inkscape.org/namespaces/inkscape"
   width="333.46512"
   height="207.05597"
   id="svg2"
   version="1.1"
   inkscape:version="0.48.4 r9939"
   sodipodi:docname="janus.svg">
  <defs
     id="defs4">
    <filter
       inkscape:collect="always"
       id="filter3767"
       color-interpolation-filters="sRGB">
      <feGaussianBlur
         inkscape:collect="always"
         stdDeviation="0.42509181"
         id="feGaussianBlur3769" />
    </filter>
  </defs>
  <sodipodi:namedview
     id="base"
     pagecolor="#ffffff"
     bordercolor="#666666"
     borderopacity="1.0"
     inkscape:pageopacity="0.0"
     inkscape:pageshadow="2"
     inkscape:zoom="1.4"
     inkscape:cx="134.33042"
     inkscape:cy="78.058998"
     inkscape:document-units="px"
     inkscape:current-layer="layer1"
     showgrid="false"
     inkscape:window-width="1440"
     inkscape:window-height="876"
     inkscape:window-x="0"
     inkscape:window-y="24"
     inkscape:window-maximized="1"
     fit-margin-top="0"
     fit-margin-left="0"
     fit-margin-right="0"
     fit-margin-bottom="0" />
  <metadata
     id="metadata7">
    <rdf:RDF>
      <cc:Work
         rdf:about="">
        <dc:format>image/svg+xml</dc:format>
        <dc:type
           rdf:resource="http://purl.org/dc/dcmitype/StillImage" />
        <dc:title />
      </cc:Work>
    </rdf:RDF>
  </metadata>
  <g
     inkscape:label="Calque 1"
     inkscape:groupmode="layer"
     id="layer1"
     transform="translate(-200.77632,-525.88672)">
    <path
       style="fill:#ed6e00;fill-opacity:1;filter:url(#filter3767)"
       d="m 229.69685,599.05566 c -6.5601,-2.65058 -8.3484,-12.26821 -4.01252,-21.57964 4.03639,-8.66825 12.38397,-13.55864 26.1244,-15.30486 l 4.01786,-0.189 6.0596,-32.1564 c -19.07233,-0.27322 -24.09219,0.90664 -26.26341,2.16104 -0.99775,0.57643 -2.93909,1.49372 -4.31409,2.03841 -1.375,0.54469 -3.58263,1.77133 -4.90584,2.72588 -2.33477,1.68427 -2.37441,1.67718 -1.34182,-0.23992 2.17351,-4.03533 8.52274,-8.53662 15.4393,-10.9457 3.41659,-1.19002 9.93159,-1.50365 31.47545,-1.51519 30.16858,-0.0162 32.09033,0.32152 39.66155,6.96914 5.31987,4.6709 7.18382,14.03032 4.62735,23.23525 -2.68294,9.66035 -11.25708,15.98858 -32.63204,16.79057 l -2.12248,7.13035 c -2.46269,8.27327 -5.74125,12.65741 -12.54127,18.03368 -5.1245,4.05155 -8.91591,5.3123 -4.64583,1.54486 4.2961,-3.79039 6.55652,-8.95843 7.74397,-16.2184 l 1.72576,-10.29863 -10.9841,0.29863 -0.62836,5.14805 c -0.76937,6.30337 -3.56976,14.13684 -6.05303,16.93202 -3.63527,4.09188 -10.03102,6.42459 -17.42814,6.35654 -3.78976,-0.0349 -7.84082,-0.44737 -9.00235,-0.91668 z m 16.52452,-5.76993 c 2.48142,-0.90656 2.95781,-2.32724 4.69259,-4.71238 1.6654,-1.66539 1.94926,-6.57345 3.05956,-17.20616 -4.71429,-0.29488 -15.95521,2.56773 -18.66479,4.53412 -5.48802,3.98275 -7.01324,12.36252 -3.02318,16.60975 2.89747,3.08422 9.25688,3.43773 13.93582,0.77467 z m 34.26882,-63.25 -4.25029,0 -4.75537,0 -6.28782,31.95521 c 4.41088,0.0999 4.50986,0.0448 9.66518,0.0448 z m 28.59045,15.5401 c -0.0612,-8.10198 -7.62217,-14.433 -14.05436,-14.85975 l -4.10153,-0.18035 -1.70838,10.5 c -1.06701,6.48492 -3.18958,17.54724 -3.622,20.16536 16.93137,-0.85971 23.26349,-5.99489 23.48627,-15.62526 z m -26.29466,52.38824 c -0.95463,-3.00778 2.09705,-6.18789 6.17774,-5.92834 l 2.80966,0.3371 -0.76881,4.1777 c -0.65454,3.55676 -7.29645,4.31894 -8.21859,1.41354 z"
       id="path3009"
       inkscape:connector-curvature="0"
       sodipodi:nodetypes="cssccsssssssscssssccssscccccsscccccccccccccsscss"
       transform="matrix(1.8230147,0,0,1.8230147,-127.44124,-427.60386)" />
    <g
       style="font-size:40px;font-style:normal;font-variant:normal;font-weight:normal;font-stretch:normal;line-height:125%;letter-spacing:0px;word-spacing:0px;fill:#555555;fill-opacity:1;stroke:none;font-family:GFS Complutum;-inkscape-font-specification:GFS Complutum"
       id="text3828"
       transform="matrix(1.1572057,0,0,1.1572057,18.031354,-25.915867)">
      <path
         d="m 163.91527,618.6001 3.94531,0 0,27.1289 c -1e-5,3.51563 -0.67058,6.06771 -2.01172,7.65625 -1.32813,1.58854 -3.47005,2.38281 -6.42578,2.38282 l -1.50391,0 0,-3.32032 1.23047,0 c 1.74479,0 2.97526,-0.48828 3.69141,-1.46484 0.71614,-0.97656 1.07421,-2.72786 1.07422,-5.25391 l 0,-27.1289"
         id="path3917"
         inkscape:connector-curvature="0"
         style="fill:#555555;fill-opacity:1" />
      <path
         d="m 182.72386,627.5415 -4.28125,11.60938 8.57813,0 -4.29688,-11.60938 m -1.78125,-3.10937 3.57813,0 8.89062,23.32812 -3.28125,0 -2.125,-5.98437 -10.51562,0 -2.125,5.98437 -3.32813,0 8.90625,-23.32812"
         style="font-size:32px;fill:#555555;fill-opacity:1"
         id="path3919"
         inkscape:connector-curvature="0" />
      <path
         d="m 196.80199,624.43213 4.25,0 10.34375,19.51562 0,-19.51562 3.0625,0 0,23.32812 -4.25,0 -10.34375,-19.51562 0,19.51562 -3.0625,0 0,-23.32812"
         style="font-size:32px;fill:#555555;fill-opacity:1"
         id="path3921"
         inkscape:connector-curvature="0" />
      <path
         d="m 220.38011,624.43213 3.17188,0 0,14.17187 c -1e-5,2.50001 0.45312,4.30209 1.35937,5.40625 0.90624,1.09376 2.37499,1.64063 4.40625,1.64063 2.02082,0 3.48436,-0.54687 4.39063,-1.64063 0.90623,-1.10416 1.35935,-2.90624 1.35937,-5.40625 l 0,-14.17187 3.17188,0 0,14.5625 c -2e-5,3.04167 -0.75523,5.33854 -2.26563,6.89062 -1.50002,1.55209 -3.71876,2.32813 -6.65625,2.32813 -2.94792,0 -5.17709,-0.77604 -6.6875,-2.32813 -1.5,-1.55208 -2.25,-3.84895 -2.25,-6.89062 l 0,-14.5625"
         style="font-size:32px;fill:#555555;fill-opacity:1"
         id="path3923"
         inkscape:connector-curvature="0" />
      <path
         d="m 258.16136,625.19775 0,3.07813 c -1.19793,-0.5729 -2.32814,-0.99998 -3.39062,-1.28125 -1.06252,-0.28123 -2.08856,-0.42185 -3.07813,-0.42188 -1.71876,3e-5 -3.04688,0.33336 -3.98437,1 -0.92709,0.66669 -1.39063,1.61461 -1.39063,2.84375 0,1.03127 0.30729,1.81252 0.92188,2.34375 0.62499,0.52085 1.80207,0.94273 3.53125,1.26563 l 1.90625,0.39062 c 2.35415,0.44793 4.08852,1.2396 5.20312,2.375 1.12498,1.12501 1.68748,2.63543 1.6875,4.53125 -2e-5,2.26042 -0.76043,3.97396 -2.28125,5.14063 -1.51043,1.16667 -3.72918,1.75 -6.65625,1.75 -1.10417,0 -2.28126,-0.125 -3.53125,-0.375 -1.23959,-0.25 -2.52604,-0.61979 -3.85937,-1.10938 l 0,-3.25 c 1.28124,0.71876 2.53645,1.26042 3.76562,1.625 1.22916,0.36459 2.43749,0.54688 3.625,0.54688 1.80207,0 3.1927,-0.35417 4.17188,-1.0625 0.97915,-0.70833 1.46873,-1.71875 1.46875,-3.03125 -2e-5,-1.14583 -0.35418,-2.04166 -1.0625,-2.6875 -0.69793,-0.64582 -1.84897,-1.1302 -3.45313,-1.45313 l -1.92187,-0.375 c -2.35418,-0.46873 -4.0573,-1.20311 -5.10938,-2.20312 -1.05208,-0.99999 -1.57813,-2.39061 -1.57812,-4.17188 -1e-5,-2.06248 0.72395,-3.68748 2.17187,-4.875 1.45833,-1.18747 3.46354,-1.78122 6.01563,-1.78125 1.09374,3e-5 2.20832,0.099 3.34375,0.29688 1.1354,0.19794 2.29686,0.49481 3.48437,0.89062"
         style="font-size:32px;fill:#555555;fill-opacity:1"
         id="path3925"
         inkscape:connector-curvature="0" />
      <path
         d="m 281.95433,621.84229 0,10.95703 4.96094,0 c 1.83592,1e-5 3.25519,-0.47525 4.25781,-1.42578 1.00259,-0.95051 1.50389,-2.30467 1.50391,-4.0625 -2e-5,-1.74477 -0.50132,-3.09243 -1.50391,-4.04297 -1.00262,-0.9505 -2.42189,-1.42576 -4.25781,-1.42578 l -4.96094,0 m -3.94531,-3.24219 8.90625,0 c 3.26821,3e-5 5.73566,0.74221 7.40234,2.22656 1.67967,1.47138 2.51951,3.63284 2.51953,6.48438 -2e-5,2.87762 -0.83986,5.05209 -2.51953,6.52343 -1.66668,1.47137 -4.13413,2.20705 -7.40234,2.20703 l -4.96094,0 0,11.71875 -3.94531,0 0,-29.16015"
         id="path3927"
         inkscape:connector-curvature="0"
         style="fill:#555555;fill-opacity:1" />
      <path
         d="m 301.36449,624.43213 3.15625,0 0,20.67187 11.35937,0 0,2.65625 -14.51562,0 0,-23.32812"
         style="font-size:32px;fill:#555555;fill-opacity:1"
         id="path3929"
         inkscape:connector-curvature="0" />
      <path
         d="m 327.72386,627.5415 -4.28125,11.60938 8.57813,0 -4.29688,-11.60938 m -1.78125,-3.10937 3.57813,0 8.89062,23.32812 -3.28125,0 -2.125,-5.98437 -10.51562,0 -2.125,5.98437 -3.32813,0 8.90625,-23.32812"
         style="font-size:32px;fill:#555555;fill-opacity:1"
         id="path3931"
         inkscape:connector-curvature="0" />
      <path
         d="m 336.06761,624.43213 19.73438,0 0,2.65625 -8.28125,0 0,20.67187 -3.17188,0 0,-20.67187 -8.28125,0 0,-2.65625"
         style="font-size:32px;fill:#555555;fill-opacity:1"
         id="path3933"
         inkscape:connector-curvature="0" />
      <path
         d="m 358.86449,624.43213 13.40625,0 0,2.65625 -10.25,0 0,6.875 9.25,0 0,2.65625 -9.25,0 0,11.14062 -3.15625,0 0,-23.32812"
         style="font-size:32px;fill:#555555;fill-opacity:1"
         id="path3935"
         inkscape:connector-curvature="0" />
      <path
         d="m 386.77074,626.57275 c -2.29168,3e-5 -4.1146,0.85419 -5.46875,2.5625 -1.34376,1.70835 -2.01563,4.03648 -2.01563,6.98438 0,2.93751 0.67187,5.26042 2.01563,6.96875 1.35415,1.70834 3.17707,2.5625 5.46875,2.5625 2.29165,0 4.10415,-0.85416 5.4375,-2.5625 1.34373,-1.70833 2.0156,-4.03124 2.01562,-6.96875 -2e-5,-2.9479 -0.67189,-5.27603 -2.01562,-6.98438 -1.33335,-1.70831 -3.14585,-2.56247 -5.4375,-2.5625 m 0,-2.5625 c 3.27081,3e-5 5.88539,1.09898 7.84375,3.29688 1.95831,2.18752 2.93747,5.12501 2.9375,8.8125 -3e-5,3.67709 -0.97919,6.61459 -2.9375,8.8125 -1.95836,2.1875 -4.57294,3.28125 -7.84375,3.28125 -3.28126,0 -5.90626,-1.09375 -7.875,-3.28125 -1.95834,-2.1875 -2.93751,-5.12499 -2.9375,-8.8125 -10e-6,-3.68749 0.97916,-6.62498 2.9375,-8.8125 1.96874,-2.1979 4.59374,-3.29685 7.875,-3.29688"
         style="font-size:32px;fill:#555555;fill-opacity:1"
         id="path3937"
         inkscape:connector-curvature="0" />
      <path
         d="m 413.55199,636.82275 c 0.67707,0.22918 1.33331,0.71876 1.96875,1.46875 0.64581,0.75001 1.29165,1.78126 1.9375,3.09375 l 3.20312,6.375 -3.39062,0 -2.98438,-5.98437 c -0.77085,-1.56249 -1.52085,-2.59895 -2.25,-3.10938 -0.71876,-0.5104 -1.70313,-0.76561 -2.95312,-0.76562 l -3.4375,0 0,9.85937 -3.15625,0 0,-23.32812 7.125,0 c 2.66665,2e-5 4.65623,0.55731 5.96875,1.67187 1.31248,1.11461 1.96873,2.7969 1.96875,5.04688 -2e-5,1.46876 -0.34377,2.68751 -1.03125,3.65625 -0.6771,0.96876 -1.66669,1.64064 -2.96875,2.01562 m -7.90625,-9.79687 0,8.28125 3.96875,0 c 1.52082,10e-6 2.66665,-0.34895 3.4375,-1.04688 0.78123,-0.70832 1.17186,-1.74477 1.17187,-3.10937 -10e-6,-1.36457 -0.39064,-2.39061 -1.17187,-3.07813 -0.77085,-0.69789 -1.91668,-1.04685 -3.4375,-1.04687 l -3.96875,0"
         style="font-size:32px;fill:#555555;fill-opacity:1"
         id="path3939"
         inkscape:connector-curvature="0" />
      <path
         d="m 424.73949,624.43213 4.70312,0 5.95313,15.875 5.98437,-15.875 4.70313,0 0,23.32812 -3.07813,0 0,-20.48437 -6.01562,16 -3.17188,0 -6.01562,-16 0,20.48437 -3.0625,0 0,-23.32812"
         style="font-size:32px;fill:#555555;fill-opacity:1"
         id="path3941"
         inkscape:connector-curvature="0" />
    </g>
  </g>
</svg>
